# xmcd
#
# Track frame offsets:
#	150
#	19925
#	45520
#	78778
#	93390
#	114285
#	143225
#	165125
#	185758
#	214753
#
# Disc length: 3096 seconds
#
# Revision: 1
# Processed by: cddbd v1.5.2PL0 Copyright (c) Steve Scherf et al.
# Submitted via: EZCDAudioConverter 8.0.2.1
#
DISCID=760c160a
DTITLE=Elvis Phương - Tình Khúc Phượng Hoàng 1
DYEAR=1990
DGENRE=World Pop
TTITLE0=Hãy ngước mắt nhìn đời
TTITLE1=Yêu em
TTITLE2=Hợp Khúc 1. Sống cho qua đêm nay, Phiên khúc mùa đông, Kho tàng của ch
TTITLE2=úng ta
TTITLE3=Nguyện cầu
TTITLE4=Giấc mơ qua
TTITLE5=Hợp Khúc 2. Tôi muốn, Yêu đời và yêu người, Thương nhau ngày 
TTITLE5=xưa
TTITLE6=Hãy vui lên bạn ơi
TTITLE7=Huyền thoại người con gái
TTITLE8=Hãy nhìn xuống chân
TTITLE9=Hợp Khúc 3. Mặt trời đen - Đêm dài
EXTD=
EXTT0=
EXTT1=
EXTT2=
EXTT3=
EXTT4=
EXTT5=
EXTT6=
EXTT7=
EXTT8=
EXTT9=
PLAYORDER=
